<svg xmlns="http://www.w3.org/2000/svg" xmlns:xlink="http://www.w3.org/1999/xlink" aria-hidden="true" role="img" class="iconify iconify--logos" width="31.88" height="32" preserveAspectRatio="xMidYMid meet" viewBox="0 0 256 257"><defs><linearGradient id="IconifyId1813088fe1fbc01fb466" x1="-.828%" x2="57.636%" y1="7.652%" y2="78.411%"><stop offset="0%" stop-color="#41D1FF"></stop><stop offset="100%" stop-color="#BD34FE"></stop></linearGradient><linearGradient id="IconifyId1813088fe1fbc01fb467" x1="43.376%" x2="50.316%" y1="2.242%" y2="89.03%"><stop offset="0%" stop-color="#FFEA83"></stop><stop offset="8.333%" stop-color="#FFDD35"></stop><stop offset="100%" stop-color="#FFA800"></stop></linearGradient></defs><path fill="url(#IconifyId1813088fe1fbc01fb466)" d="M255.153 37.938v134.175a245.498 245.498 0 01-51.925 129.525c-2.953 3.918-8.136 3.918-11.089 0l-64.366-85.534c-2.953-3.918-2.953-10.295 0-14.213l25.086-33.426c2.953-3.918 2.953-10.295 0-14.213L128.418 4.841c-2.953-3.918-8.136-3.918-11.089 0L2.953 129.525a7.462 7.462 0 000 11.089l64.366 85.534c2.953 3.918 2.953 10.295 0 14.213l-25.086 33.426c-2.953 3.918-8.136 3.918-11.089 0a245.498 245.498 0 01-51.925-129.525V37.938a245.498 245.498 0 0151.925-129.525c2.953-3.918 8.136-3.918 11.089 0l64.366 85.534c2.953 3.918 2.953 10.295 0 14.213l-25.086 33.426c-2.953 3.918-2.953 10.295 0 14.213l25.086 33.426c2.953 3.918 2.953 10.295 0 14.213l-64.366 85.534c-2.953 3.918-8.136 3.918-11.089 0a245.498 245.498 0 01-51.925-129.525z"></path><path fill="url(#IconifyId1813088fe1fbc01fb467)" d="M149.129 1.375l85.534 64.366c3.918 2.953 3.918 8.136 0 11.089l-85.534 64.366a7.462 7.462 0 01-11.089 0l-33.426-25.086c-3.918-2.953-3.918-8.136 0-11.089l33.426-33.426c3.918-2.953 3.918-8.136 0-11.089l-33.426-33.426c-3.918-2.953-3.918-8.136 0-11.089l33.426-25.086a7.462 7.462 0 0111.089 0z"></path></svg>
